<svg width="7" height="9" viewBox="0 0 7 9" fill="none" xmlns="http://www.w3.org/2000/svg">
<path opacity="0.5" d="M4 0.75H2.5C2.35938 0.75 2.25 0.859375 2.25 1V6C2.25 6.14062 2.35938 6.25 2.5 6.25H6C6.14062 6.25 6.25 6.14062 6.25 6V3H5.125C4.5 3 4 2.5 4 1.875V0.75ZM4.75 0.8125V1.875C4.75 2.07812 4.92188 2.25 5.125 2.25H6.1875L4.75 0.8125ZM2.5 0H4.6875C4.89062 0 5.07812 0.078125 5.21875 0.21875L6.78125 1.78125C6.92188 1.92188 7 2.10938 7 2.3125V6C7 6.54688 6.54688 7 6 7H2.5C1.95312 7 1.5 6.54688 1.5 6V1C1.5 0.453125 1.95312 0 2.5 0ZM0.375 1.5C0.578125 1.5 0.75 1.67188 0.75 1.875V7.5C0.75 7.64062 0.859375 7.75 1 7.75H5.125C5.32812 7.75 5.5 7.92188 5.5 8.125C5.5 8.32812 5.32812 8.5 5.125 8.5H1C0.453125 8.5 0 8.04688 0 7.5V1.875C0 1.67188 0.171875 1.5 0.375 1.5Z" fill="white"/>
</svg>
