<svg width="9" height="11" viewBox="0 0 9 11" fill="none" xmlns="http://www.w3.org/2000/svg">
<path d="M7.73438 3.4375C8.01367 3.4375 8.25 3.67383 8.25 3.95312V4.8125C8.25 6.91797 6.68164 8.6582 4.64062 8.91602V9.96875H5.67188C5.95117 9.96875 6.1875 10.2051 6.1875 10.4844C6.1875 10.7637 5.95117 11 5.67188 11H2.57812C2.29883 11 2.0625 10.7637 2.0625 10.4844C2.0625 10.2051 2.29883 9.96875 2.57812 9.96875H3.60938V8.91602C1.56836 8.6582 0 6.91797 0 4.8125V3.95312C0 3.67383 0.236328 3.4375 0.515625 3.4375C0.794922 3.4375 1.03125 3.67383 1.03125 3.95312V4.8125C1.03125 6.53125 2.42773 7.90625 4.125 7.90625C5.84375 7.90625 7.21875 6.53125 7.21875 4.8125V3.95312C7.21875 3.67383 7.45508 3.4375 7.73438 3.4375ZM4.125 0C5.26367 0 6.1875 0.923828 6.1875 2.0625V4.8125C6.1875 5.95117 5.26367 6.875 4.125 6.875C2.98633 6.875 2.0625 5.95117 2.0625 4.8125V2.0625C2.0625 0.923828 2.98633 0 4.125 0ZM3.29785 1.83984V4.57031H3.79785V1.83984H3.29785ZM4.40137 1.83984V4.57031H4.90137V1.83984H4.40137Z" fill="white"/>
</svg>
