<svg width="15" height="11" viewBox="0 0 15 11" fill="none" xmlns="http://www.w3.org/2000/svg">
<path d="M4.05 5.346C5.238 5.346 6.156 6.264 6.156 7.614C6.156 9.126 5.022 10.206 3.348 10.206C1.458 10.206 0 8.694 0 6.264C0 3.996 1.296 1.458 5.292 0V1.188C2.862 2.106 1.62 3.672 1.62 5.184C1.62 5.724 1.836 6.048 2.16 6.048C2.7 6.048 2.97 5.346 4.05 5.346ZM12.744 5.346C13.986 5.346 14.85 6.264 14.85 7.614C14.85 9.126 13.716 10.206 12.042 10.206C10.152 10.206 8.694 8.694 8.694 6.264C8.694 3.996 9.99 1.458 13.986 0V1.188C11.556 2.106 10.314 3.672 10.314 5.184C10.314 5.724 10.53 6.048 10.908 6.048C11.448 6.048 11.664 5.346 12.744 5.346Z" fill="white"/>
</svg>
